<?xml version="1.0" encoding="UTF-8" standalone="no"?>
<!-- Created with Inkscape (http://www.inkscape.org/) -->

<svg
   xmlns:dc="http://purl.org/dc/elements/1.1/"
   xmlns:cc="http://creativecommons.org/ns#"
   xmlns:rdf="http://www.w3.org/1999/02/22-rdf-syntax-ns#"
   xmlns:svg="http://www.w3.org/2000/svg"
   xmlns="http://www.w3.org/2000/svg"
   xmlns:sodipodi="http://sodipodi.sourceforge.net/DTD/sodipodi-0.dtd"
   xmlns:inkscape="http://www.inkscape.org/namespaces/inkscape"
   version="1.1"
   id="svg2"
   width="61.119999"
   height="60.799999"
   viewBox="0 0 61.119999 60.799999"
   sodipodi:docname="logo_Univ_Grenoble-vect.svg"
   inkscape:version="0.92.4 (5da689c313, 2019-01-14)">
  <metadata
     id="metadata8">
    <rdf:RDF>
      <cc:Work
         rdf:about="">
        <dc:format>image/svg+xml</dc:format>
        <dc:type
           rdf:resource="http://purl.org/dc/dcmitype/StillImage" />
        <dc:title></dc:title>
      </cc:Work>
    </rdf:RDF>
  </metadata>
  <defs
     id="defs6" />
  <sodipodi:namedview
     pagecolor="#ffffff"
     bordercolor="#666666"
     borderopacity="1"
     objecttolerance="10"
     gridtolerance="10"
     guidetolerance="10"
     inkscape:pageopacity="0"
     inkscape:pageshadow="2"
     inkscape:window-width="1918"
     inkscape:window-height="1038"
     id="namedview4"
     showgrid="false"
     inkscape:zoom="3.881579"
     inkscape:cx="30.559999"
     inkscape:cy="30.4"
     inkscape:window-x="0"
     inkscape:window-y="20"
     inkscape:window-maximized="1"
     inkscape:current-layer="svg2" />
  <path
     style="fill:#ffffff;stroke-width:0.31999999"
     d="M 24.32,58.576041 C 16.056223,56.619253 9.8481864,52.100415 5.5134309,44.88671 1.2918874,37.861411 0.24580672,28.819839 2.7636989,21.12 6.0538639,11.058512 13.367655,4.2654822 24,1.3957765 c 3.015143,-0.81379747 9.901955,-0.80511216 13.112812,0.016537 6.412,1.6408124 11.136723,4.5242587 15.543446,9.4859925 6.741696,7.59079 8.896439,18.973028 5.428541,28.675783 -3.061187,8.564825 -9.93384,15.456054 -18.0848,18.133686 C 35.137993,59.304969 28.865257,59.652316 24.32,58.576041 Z m 2.583643,-0.787552 c -0.483191,-0.582212 0.142014,-1.034948 0.741801,-0.537168 0.310419,0.257625 0.560285,0.18854 0.974825,-0.26952 0.721638,-0.797402 0.395707,-1.941802 -0.553036,-1.941802 h -0.689637 l 0.711202,-0.498144 C 28.479959,54.267874 28.8,53.835874 28.8,53.581855 28.8,53.032591 28.640837,53.011404 27.818962,53.451257 27.413826,53.668079 27.2,53.67197 27.2,53.462518 c 0,-0.506596 1.175925,-1.001549 1.816818,-0.764714 0.885805,0.327344 1.082459,0.830499 0.553178,1.41535 -0.423995,0.468509 -0.422177,0.549047 0.01619,0.717264 1.204078,0.462048 0.04514,2.785875 -1.586184,3.180515 -0.352,0.08515 0.368,0.16016 1.6,0.166682 1.231999,0.0065 2.059999,-0.06077 1.839999,-0.149546 -0.738698,-0.29807 -0.40891,-0.762499 0.397694,-0.560054 0.640783,0.160826 0.853654,0.05187 1.082185,-0.553904 0.388595,-1.030051 -0.126192,-1.966019 -0.939367,-1.707926 -0.341282,0.108316 -0.620512,0.05294 -0.620512,-0.123056 0,-0.176 0.288,-0.411408 0.64,-0.52313 0.661629,-0.209993 0.862605,-0.944653 0.345799,-1.264054 -0.161811,-0.100007 -0.521811,0.04578 -0.8,0.323971 -0.278189,0.278189 -0.505799,0.361798 -0.505799,0.185798 0,-0.458854 0.930916,-1.325715 1.423674,-1.325715 0.631974,0 1.173581,0.810573 0.943037,1.41136 -0.116986,0.304858 0.02976,0.791162 0.343321,1.137626 0.73178,0.808608 0.384839,1.809308 -0.898604,2.591897 l -1.011428,0.616723 1.12,-0.03666 c 1.1064,-0.03622 3.316868,-0.489782 2.744221,-0.563085 -0.162681,-0.02083 0.0477,-0.403472 0.467498,-0.850333 0.572336,-0.609222 0.750358,-1.136604 0.711616,-2.108134 -0.05333,-1.337443 -0.581747,-2.324669 -1.079594,-2.016982 -0.461309,0.285104 -0.323693,1.422345 0.196259,1.621869 0.665722,0.255462 0.602173,0.755721 -0.096,0.755721 -0.769286,0 -1.344,-0.615763 -1.344,-1.44 0,-0.912288 0.595444,-1.44 1.62482,-1.44 1.018444,0 1.423043,0.434243 1.726512,1.853005 0.233273,1.090592 -0.333476,2.363993 -1.406784,3.160832 -0.999101,0.741747 -0.1325,0.677833 2.53616,-0.187053 5.41871,-1.756147 9.955183,-4.812512 13.190604,-8.886921 C 56.920745,42.194387 58.695061,37.192707 58.680514,29.92 58.67037,24.845287 57.954946,21.7432 55.77262,17.311169 52.078255,9.8083851 45.653228,4.6630137 37.064668,2.3292306 c -2.818176,-0.7657878 -10.19116,-0.7657878 -13.009337,0 C 17.239002,4.1814425 11.737695,7.875772 7.7482991,13.28 2.8192685,19.957103 1.1363102,28.783841 3.2141436,37.060623 c 1.2326109,4.909949 5.1139782,11.294554 8.7393074,14.375613 3.580193,3.042698 8.137411,5.266736 13.006549,6.34752 2.355499,0.522841 2.373674,0.522886 1.943643,0.0047 z M 24.48,57.042361 c -1.37811,-0.258039 -1.621503,-0.412416 -1.129559,-0.716455 0.677877,-0.41895 1.321402,-2.868483 0.940546,-3.580118 -0.265514,-0.496118 -0.189319,-0.585789 0.497754,-0.585789 0.932504,0 0.953886,0.151472 0.371002,2.628246 -0.309054,1.313229 -0.330182,1.864292 -0.075,1.956192 0.563083,0.202791 0.101537,0.430167 -0.604742,0.297924 z m 4.8,-4.584067 C 28.752,52.120086 27.867168,51.84261 27.313707,51.841682 25.791386,51.839122 22.428625,50.704025 19.962857,49.36038 16.76837,47.619641 12.656035,43.421846 11.106525,40.319999 9.2711666,36.645935 8.6399999,34.01454 8.6399999,30.036815 c 0,-4.011123 0.9396643,-7.792034 2.7339351,-11.000491 C 11.983486,17.946345 12.48,16.605443 12.48,16.049248 12.48,15.176426 12.592151,15.04 13.309669,15.04 c 0.55326,0 1.456871,-0.567586 2.712276,-1.703661 2.152057,-1.9475 6.234722,-4.0992931 9.211519,-4.8549865 2.685088,-0.6816393 7.965003,-0.6858422 10.579259,-0.00842 3.763334,0.9751776 8.052342,3.3754765 10.243055,5.7324215 0.482935,0.519579 1.117114,0.834646 1.68,0.834646 0.796512,0 0.904221,0.117365 0.904221,0.985274 0,0.541901 0.563639,2.03666 1.252528,3.321687 3.388135,6.320076 3.568483,13.830357 0.486013,20.239071 -3.134624,6.517152 -9.88159,11.394329 -17.152374,12.398931 -0.82161,0.113523 -1.667241,0.415347 -1.879183,0.67072 C 30.852137,53.251936 30.460645,53.21455 29.28,52.458294 Z m 3.915692,-2.411924 c 2.606464,-2.16006 5.094663,-4.802771 6.692912,-7.108531 l 1.179859,-1.702163 -5.250646,-5.257891 -5.250648,-5.257891 -5.203585,5.196416 C 22.501613,38.774339 20.16,41.269625 20.16,41.461388 c 0,0.191763 1.127343,1.709878 2.505206,3.373584 2.464047,2.975226 7.014151,7.005027 7.909469,7.005027 0.251189,0 1.430646,-0.807133 2.621017,-1.793629 z m -4.009688,-3.508156 c -0.618134,-0.432957 -0.960672,-0.44712 -2.497244,-0.103252 -1.503792,0.336535 -1.825813,0.327479 -2.069902,-0.05821 -0.158982,-0.251213 -0.291263,-2.28943 -0.293958,-4.529373 -0.0056,-4.626099 -0.0047,-4.627744 2.925749,-5.407676 1.270135,-0.338048 1.601196,-0.323338 2.237933,0.09944 0.675407,0.448454 0.84809,0.448108 1.795334,-0.0036 0.862298,-0.411204 1.235338,-0.432058 2.104784,-0.117661 0.581207,0.210166 1.335875,0.382121 1.677043,0.382121 1.175079,0 1.464109,1.086269 1.392119,5.231991 -0.03714,2.138406 -0.208976,4.068009 -0.381872,4.288009 -0.172896,0.22 -0.836723,0.380391 -1.475171,0.356423 -0.87425,-0.03282 -0.963322,-0.07901 -0.36082,-0.187098 1.411328,-0.253187 1.286221,-0.566963 -0.258976,-0.649533 -1.076233,-0.05751 -1.365184,0.009 -1.021024,0.235101 0.391895,0.25743 0.351309,0.316208 -0.221113,0.320208 -0.385613,0.0026 -0.790112,0.148899 -0.898887,0.324899 -0.301411,0.487693 -1.849575,0.381651 -2.653995,-0.181785 z M 30.08,46.072079 c 0,-0.346793 -1.590114,-1.068633 -1.828631,-0.830115 -0.106312,0.10631 0.949395,0.784963 1.748631,1.12409 0.044,0.01866 0.08,-0.11362 0.08,-0.293975 z m -1.062109,-1.122333 1.08207,0.202999 -0.08998,-3.929194 c -0.08973,-3.918259 -0.09232,-3.930012 -0.929092,-4.223766 -0.939759,-0.329904 -3.77862,0.344291 -3.832086,0.910077 -0.01716,0.181574 -0.08598,1.83799 -0.152926,3.680921 -0.06695,1.842931 -0.188449,3.524656 -0.269997,3.737168 -0.108185,0.281923 0.292161,0.255591 1.480836,-0.09741 0.954821,-0.283552 2.076974,-0.399773 2.711176,-0.280797 z m -3.170575,-2.200259 c -0.09454,-0.494537 0.01337,-0.861049 0.28408,-0.964931 0.330885,-0.126973 0.385948,0.04338 0.227544,0.703968 -0.279722,1.166515 -0.333293,1.19384 -0.511624,0.260963 z m 1.136671,-0.525475 c 0.344977,-0.913949 0.387,-0.934288 0.661104,-0.32 0.376849,0.84455 0.942134,0.857942 0.674909,0.016 -0.139411,-0.439245 -0.0575,-0.64 0.261113,-0.64 0.255334,0 0.541623,0.295904 0.636199,0.657565 0.129484,0.495146 -0.03258,0.735328 -0.656128,0.9724 -0.609289,0.231651 -0.897217,0.205875 -1.089735,-0.09756 -0.20291,-0.319817 -0.262749,-0.322601 -0.266549,-0.01238 -0.0027,0.22 -0.136392,0.4 -0.297104,0.4 -0.160712,0 -0.126426,-0.439194 0.07619,-0.975987 z m -1.12738,-2.315088 c -0.09465,-0.490093 -0.101965,-0.82095 -0.01625,-0.735238 0.08571,0.08571 0.364981,-0.05331 0.620599,-0.308925 0.694771,-0.694771 1.094032,-0.562502 0.975429,0.323139 -0.144863,1.081731 -0.553099,1.414599 -0.570814,0.465434 -0.01356,-0.726714 -0.03922,-0.715463 -0.42565,0.186665 l -0.411217,0.96 -0.172092,-0.891075 z M 27.92,39.150323 c 0,-0.441226 0.155567,-0.719373 0.36,-0.643658 0.198,0.07333 0.324,0.295334 0.28,0.493334 -0.044,0.198 0.136,0.36 0.4,0.36 0.794225,0 0.539196,0.476573 -0.280226,0.523658 C 28.076694,39.91831 27.92,39.767071 27.92,39.150323 Z m 5.682281,6.104492 1.917718,0.216963 -0.0225,-1.695888 c -0.01648,-1.242777 -0.09597,-1.524892 -0.297504,-1.055891 -0.262416,0.610675 -0.276048,0.607008 -0.297507,-0.08 -0.01237,-0.396 0.121507,-0.72 0.297507,-0.72 0.182858,0 0.32,-0.96 0.32,-2.24 0,-1.883916 -0.08541,-2.24 -0.53728,-2.24 -0.295504,0 -1.00839,-0.170355 -1.584192,-0.378566 -0.797651,-0.288435 -1.241145,-0.29007 -1.862719,-0.0068 -0.783634,0.357046 -0.814345,0.476093 -0.778688,3.018566 0.02042,1.455773 0.102975,2.394861 0.183464,2.086861 0.08049,-0.308 0.295191,-0.56 0.477116,-0.56 0.181925,0 0.249655,0.211389 0.150512,0.469751 -0.09914,0.258364 -0.05892,0.544745 0.08938,0.636403 0.148304,0.09166 0.367708,-0.155731 0.487561,-0.549754 0.132297,-0.434928 0.282796,-0.559241 0.383046,-0.3164 0.09082,0.22 0.305629,0.4 0.47735,0.4 0.171722,0 0.211677,-0.162681 0.08879,-0.361513 -0.13544,-0.219149 -0.04836,-0.303943 0.221113,-0.215322 0.2445,0.0804 0.493383,0.565024 0.553076,1.076931 0.106156,0.910365 0.0946,0.918125 -0.528231,0.354477 -0.453926,-0.4108 -0.702595,-0.469744 -0.866041,-0.205283 -0.126103,0.204038 -0.559415,0.307868 -0.962916,0.230736 -0.648968,-0.124058 -0.747358,0.0036 -0.852532,1.106489 -0.136416,1.430458 -0.01301,1.673434 0.594026,1.169632 0.281821,-0.233888 1.097594,-0.282963 2.349444,-0.141331 z m 0.700102,-2.534816 c 0.0065,-0.528 0.07824,-0.70526 0.159373,-0.39391 0.08113,0.31135 0.0758,0.74335 -0.01184,0.96 -0.08766,0.216649 -0.154038,-0.03809 -0.147517,-0.56609 z m -0.622384,-2.342256 c -0.45375,-0.06444 -0.72,-0.323708 -0.72,-0.701113 0,-0.750247 0.629172,-1.171923 0.95704,-0.641418 0.190842,0.308787 0.279975,0.300106 0.400413,-0.03901 0.268871,-0.757017 0.552269,-0.121225 0.311965,0.699879 -0.170099,0.581222 -0.415584,0.757475 -0.949418,0.681657 z m -2.32,-0.377744 c 0,-0.176 0.144,-0.32 0.32,-0.32 0.176,0 0.32,0.144 0.32,0.32 0,0.176 -0.144,0.32 -0.32,0.32 -0.176,0 -0.32,-0.144 -0.32,-0.32 z m -7.023562,8.08 C 21.044191,44.739286 19.12623,42.115628 17.140597,38.236515 14.643248,33.357718 12.703425,26.222112 12.400461,20.8 L 12.32,19.36 11.636052,20.64 c -2.0586234,3.852688 -2.6958051,9.766611 -1.552249,14.407001 1.767767,7.173347 7.779512,13.433888 14.73134,15.340995 0.871671,0.239126 1.741415,0.447651 1.932764,0.463389 0.191349,0.01574 -0.893813,-1.231386 -2.41147,-2.771386 z m 12.687044,2.010643 c 5.017162,-1.586339 9.653273,-5.509046 12.141766,-10.273388 1.687405,-3.230621 2.374605,-6.054071 2.397843,-9.851865 0.02214,-3.615908 -0.415372,-5.749037 -1.786179,-8.70889 L 48.750377,19.04 48.512962,21.92 C 47.63486,32.572054 43.205119,41.952847 35.70663,49.039791 c -1.070647,1.011888 -1.774064,1.839888 -1.563149,1.84 0.210915,1.15e-4 1.506915,-0.355001 2.88,-0.789149 z M 24.854284,35.126716 30.08,29.933436 v -6.972031 -6.972032 l -8.4,0.08531 -8.4,0.08531 0.07711,3.36 c 0.09313,4.057985 1.035639,9.256249 2.365047,13.044111 0.95961,2.734202 3.373228,7.755888 3.727782,7.755888 0.09824,0 2.530198,-2.336976 5.404341,-5.193283 z M 20.56,35.85806 c -0.786382,-0.656025 -0.900215,-1.323401 -0.388741,-2.279097 0.29787,-0.556576 0.21954,-0.618964 -0.777143,-0.618964 -0.932923,0 -2.114116,-0.640646 -2.114116,-1.146638 0,-0.07751 0.612,-0.06806 1.36,0.021 1.31856,0.15699 1.327925,0.151852 0.307355,-0.168644 -1.154683,-0.362611 -1.956692,-1.744379 -1.359247,-2.341824 0.229189,-0.229189 0.331892,-0.197716 0.331892,0.101705 0,0.311039 0.187678,0.263749 0.663994,-0.167311 0.65721,-0.594767 0.661904,-0.592578 0.459429,0.214149 -0.324985,1.294843 1.691175,2.313923 2.871041,1.451184 0.547768,-0.400538 0.538398,-0.450301 -0.179462,-0.953111 L 20.977596,29.44 h 0.852316 c 0.468774,0 0.950815,-0.159374 1.071202,-0.354165 0.155568,-0.251713 0.289932,-0.239207 0.46449,0.04323 0.29327,0.474521 0.754149,-0.286648 1.071149,-1.769067 l 0.205287,-0.96 -0.470203,0.839849 c -0.500485,0.893937 -1.963098,1.560131 -1.653411,0.753099 0.109963,-0.286559 0.007,-0.378209 -0.294723,-0.262415 C 21.968666,27.8284 21.76,27.764473 21.76,27.588473 c 0,-0.176 0.222502,-0.405383 0.494449,-0.509738 0.597681,-0.229352 1.528729,-2.332903 1.239613,-2.800704 -0.141956,-0.229689 -0.314798,-0.225296 -0.55418,0.01409 C 22.748547,24.483452 22.403579,24.64 22.173288,24.64 c -0.336843,0 -0.341539,-0.123574 -0.02401,-0.632014 0.298176,-0.477455 0.30442,-0.722291 0.02553,-1.001177 -0.278885,-0.278886 -0.580937,-0.202584 -1.235141,0.312013 C 19.818853,24.200454 19.52,24.177811 19.52,23.211258 c 0,-0.935366 -0.93276,-1.560901 -1.617243,-1.084568 -0.352152,0.245063 -0.367152,0.360827 -0.06276,0.484338 0.564163,0.228916 0.497309,0.963158 -0.108878,1.195774 -1.461935,0.560997 -1.447832,-1.213605 0.02099,-2.640697 0.607912,-0.590643 1.074378,-1.221904 1.036592,-1.402802 -0.03778,-0.180899 0.777066,-0.76651 1.810782,-1.301358 1.94713,-1.007453 1.872305,-1.006146 4.108383,-0.07173 0.376596,0.157373 0.794561,-0.03724 1.337009,-0.622556 0.768848,-0.829602 0.797965,-0.835018 1.132134,-0.210618 0.188646,0.352486 0.342992,0.96715 0.342992,1.365921 0,0.563917 0.08533,0.639703 0.384,0.341037 0.687559,-0.687559 0.896,-0.410879 0.896,1.189333 0,0.91735 0.156189,1.625397 0.374609,1.698203 0.275927,0.09198 0.289061,0.461907 0.04986,1.404284 -0.193323,0.761632 -0.21204,1.584098 -0.04625,2.032273 0.213016,0.575837 0.12605,0.915135 -0.36986,1.443007 -0.356598,0.379581 -0.64836,0.948143 -0.64836,1.263469 0,0.315327 -0.36,0.856498 -0.8,1.202602 -0.44,0.346104 -0.8,0.778104 -0.8,0.96 0,0.902012 -3.051878,2.610896 -4.24,2.374166 -0.505679,-0.100755 -0.88,-0.03459 -0.88,0.155549 0,0.181987 0.141831,0.243229 0.315181,0.136093 0.193773,-0.11976 0.244032,0.16095 0.130476,0.728732 -0.125591,0.627956 -0.0151,1.093127 0.345221,1.453453 1.109749,1.109747 -0.403242,1.6104 -1.670878,0.552897 z m 5.774939,-5.948116 C 27.074311,28.894075 26.879368,28.898799 25.92,29.92 c -0.413359,0.44 -0.61846,0.795474 -0.455781,0.789943 0.162679,-0.0055 0.554503,-0.36553 0.87072,-0.799999 z M 26.24,28.658885 c 0,-0.07761 -0.144,-0.230111 -0.32,-0.338885 -0.176,-0.108775 -0.32,-0.04527 -0.32,0.141114 0,0.186387 0.144,0.338886 0.32,0.338886 0.176,0 0.32,-0.0635 0.32,-0.141115 z M 28.131367,24.48 c 0.01036,-1.056 -0.120758,-2.136 -0.291367,-2.4 -0.17061,-0.264 -0.312405,-0.319802 -0.3151,-0.124005 -0.0027,0.195798 -0.3649,0.316478 -0.8049,0.268178 -0.44,-0.0483 -0.8,0.05321 -0.8,0.225569 0,0.172362 0.288,0.221978 0.64,0.110258 0.381435,-0.121063 0.64,-0.0575 0.64,0.157321 0,0.198247 0.144,0.271453 0.32,0.162679 0.176,-0.108774 0.32,-0.06068 0.32,0.106878 0,0.167557 -0.227778,0.392055 -0.506172,0.498885 -0.705628,0.270775 -0.842178,0.243714 -0.616094,-0.122098 0.113854,-0.18422 -0.02089,-0.233297 -0.322624,-0.11751 -0.367176,0.140899 -0.418633,0.298322 -0.17662,0.540335 0.18783,0.18783 0.34151,0.62471 0.34151,0.970843 0,0.346133 0.106163,0.52317 0.235918,0.393414 0.129755,-0.129755 0.237755,-0.465358 0.24,-0.745785 0.0022,-0.280426 0.220082,-0.569226 0.484082,-0.641776 0.426666,-0.117254 0.426666,-0.09419 0,0.207552 -0.325423,0.230143 -0.351186,0.34104 -0.08,0.344361 0.22,0.0027 0.4,0.220901 0.4,0.484901 0,0.264 -0.144,0.48 -0.32,0.48 -0.176,0 -0.32,0.152498 -0.32,0.338885 0,0.186387 0.144,0.249889 0.32,0.141115 0.417659,-0.258128 0.407787,-0.169281 -0.16,1.44 -0.643651,1.824299 -0.567733,2.052054 0.16,0.48 0.357394,-0.772047 0.600008,-2.04193 0.611367,-3.2 z M 20.8,22.594236 c 0,-0.06917 -0.223479,-0.211521 -0.49662,-0.316335 -0.284776,-0.109278 -0.413224,-0.05563 -0.301115,0.125764 C 20.190188,22.70773 20.8,22.853408 20.8,22.594236 Z M 25.44,21.12 C 25.548774,20.944 25.48527,20.8 25.298885,20.8 25.112498,20.8 24.96,20.944 24.96,21.12 c 0,0.176 0.0635,0.32 0.141114,0.32 0.07761,0 0.230112,-0.144 0.338886,-0.32 z M 21.824554,19.762332 C 21.209633,19.147411 20.48,19.210055 20.48,19.877771 c 0,0.176 0.135367,0.236338 0.300817,0.134084 0.165449,-0.102253 0.489449,0.01814 0.72,0.267528 0.23055,0.249393 0.541707,0.379081 0.69146,0.288196 0.149752,-0.09089 -0.01572,-0.453247 -0.367723,-0.805247 z m -7.250889,1.699779 C 14.306362,21.029604 14.886837,20.764202 15.571122,21.006059 16.053037,21.176388 16.087344,21.13589 15.76,20.783097 15.207707,20.187867 15.257628,19.2 15.84,19.2 c 0.264,0 0.48,0.229481 0.48,0.509958 0,0.280477 0.288,0.585272 0.64,0.677322 0.352,0.09205 0.64,0.294569 0.64,0.450042 0,0.155473 -0.288,0.282678 -0.64,0.282678 -0.352,0 -0.64,0.144 -0.64,0.32 0,0.403847 -1.498681,0.422823 -1.746335,0.02211 z M 43.14389,37.679999 c 2.8701,-5.867712 4.536109,-12.675548 4.536109,-18.535965 V 16 h -8.32 -8.32 v 6.956468 6.956468 l 5.196362,5.203531 c 2.858,2.861942 5.290832,5.203532 5.406291,5.203532 0.115456,0 0.791015,-1.188 1.501238,-2.64 z m -5.233046,-4.739651 c -0.662835,-0.192822 -1.130928,-0.638841 -1.480979,-1.411141 -0.281504,-0.621064 -0.38264,-1.129208 -0.224749,-1.129208 0.157891,0 0.196458,-0.361048 0.08571,-0.802331 -0.435904,-1.736771 2.171139,-3.432452 3.755766,-2.442836 0.3216,0.200842 0.773754,0.365168 1.004784,0.365168 0.474432,0 1.328263,2.075179 1.043447,2.536023 -0.101892,0.164864 -0.03891,0.390202 0.139961,0.500751 0.487987,0.301593 0.391325,0.803225 -0.154781,0.803225 -0.264,0 -0.48,0.223348 -0.48,0.496329 0,0.27298 -0.499376,0.70498 -1.109721,0.960001 -1.238013,0.517274 -1.229075,0.516845 -2.579434,0.124019 z m 3.129155,-1.323606 C 41.649599,30.911736 41.808278,29.12 41.261113,29.12 c -0.186387,0 -0.249888,0.144 -0.141114,0.32 0.108775,0.176 -0.03123,0.32 -0.311158,0.32 -0.659792,0 -0.98056,0.847515 -0.527418,1.393518 0.500359,0.602895 0.05833,0.911947 -0.502377,0.351243 -0.255619,-0.255619 -0.588189,-0.464762 -0.739047,-0.464762 -0.150857,0 -0.483427,0.209143 -0.739046,0.464762 -0.554496,0.554496 -1.005446,0.254917 -0.511741,-0.339962 C 38.228147,30.635915 37.860124,29.44 37.258435,29.44 c -0.484634,0 -0.538685,0.60222 -0.172269,1.919328 0.381862,1.37263 2.850563,1.533353 3.953833,0.257414 z M 39.606665,30.02 c -0.197504,-0.592515 -0.78761,-0.659695 -0.997197,-0.113525 -0.132729,0.345885 0.007,0.493524 0.467242,0.493524 0.364643,0 0.600297,-0.168973 0.529955,-0.379999 z m 1.320205,-1.158099 c 0.254477,-0.475491 0.14288,-0.64095 -0.628739,-0.932204 -0.864192,-0.326195 -0.938132,-0.297446 -0.938132,0.364766 0,1.244801 1.008832,1.610146 1.566871,0.567438 z m -2.206871,-0.526775 c 0,-0.619898 -0.123363,-0.751062 -0.56,-0.595408 -0.698601,0.249041 -1.36,0.750633 -1.36,1.031397 0,0.117013 0.432,0.245669 0.96,0.285901 0.828698,0.06314 0.96,-0.03559 0.96,-0.72189 z M 35.061113,25.634164 C 34.940726,25.439373 34.519526,25.28 34.125113,25.28 c -0.865302,0 -1.485114,-0.560919 -1.485114,-1.344 0,-0.3168 -0.130297,-0.576 -0.289548,-0.576 -0.3622,0 -0.05206,-2.452018 0.422486,-3.340199 0.214275,-0.401051 0.72793,-0.691612 1.309792,-0.740917 1.188266,-0.100689 3.695706,0.592401 3.469181,0.958929 -0.09186,0.148622 -0.03059,0.443914 0.136137,0.656204 0.417716,0.531863 0.736013,2.785983 0.393399,2.785983 -0.153075,0 -0.369619,0.287665 -0.48121,0.639256 -0.11159,0.351591 -0.589296,0.733763 -1.061565,0.849271 -0.472268,0.115508 -0.948672,0.347217 -1.058672,0.514908 -0.121468,0.185176 -0.285945,0.16583 -0.418886,-0.04927 z m 1.818886,-1.217292 c 0.132,-0.07405 0.24,-0.342145 0.24,-0.595758 0,-0.253613 0.11288,-0.461114 0.250848,-0.461114 0.35785,0 0.290183,-1.668456 -0.09085,-2.24 -0.496953,-0.745429 -2.323129,-1.663267 -2.55686,-1.285081 -0.1105,0.178794 -0.475344,0.325081 -0.810765,0.325081 -0.783645,0 -1.272903,0.922624 -1.11809,2.108443 0.06689,0.512356 0.149543,0.967557 0.183667,1.011557 0.07526,0.09703 0.207447,0.610936 0.262048,1.018745 0.07277,0.543486 2.728192,0.629661 3.64,0.118127 z m -3.09952,-1.213493 c 0.161645,-0.861645 0.0923,-1.161584 -0.303664,-1.313531 -0.70264,-0.269629 -0.343811,-0.748372 0.412653,-0.550552 0.419936,0.109815 0.674736,-0.04843 0.821245,-0.510042 0.116829,-0.36809 0.35521,-0.669254 0.529734,-0.669254 0.174528,0 0.224429,0.150308 0.11089,0.334017 -0.325277,0.52631 0.509392,1.302531 1.17384,1.091643 0.327152,-0.103833 0.594822,-0.03509 0.594822,0.152775 0,0.187861 -0.216,0.341565 -0.48,0.341565 -0.537932,0 -0.659273,1.131431 -0.15478,1.443226 0.365516,0.225902 0.118972,0.796774 -0.344106,0.796774 -0.165613,0 -0.301114,-0.216 -0.301114,-0.48 0,-0.269139 -0.285561,-0.48 -0.650041,-0.48 -0.357527,0 -0.732931,0.216 -0.834237,0.48 -0.360134,0.938488 -0.78295,0.470556 -0.575242,-0.636621 z m 1.73952,-0.982265 c 0,-0.253613 -0.216,-0.461114 -0.48,-0.461114 -0.481993,0 -0.657817,0.675517 -0.275366,1.057967 0.298637,0.298637 0.755366,-0.06225 0.755366,-0.596853 z m 7.36,3.414441 c 0,-0.156444 -0.18,-0.277759 -0.4,-0.269589 -1.139424,0.04232 -1.525907,-0.158089 -1.708595,-0.885966 -0.110432,-0.44 -0.320121,-0.8 -0.465977,-0.8 -0.318208,0 -0.06673,-2.044301 0.404972,-3.292061 0.185482,-0.490633 0.497517,-0.835309 0.693418,-0.765946 0.195901,0.06936 0.68961,0.0028 1.097133,-0.147985 0.480067,-0.17759 0.987084,-0.133768 1.44,0.124464 0.384476,0.219209 0.87782,0.400748 1.096316,0.403418 0.218496,0.0027 0.374164,0.07534 0.345927,0.161483 -0.02822,0.08614 0.131638,0.498524 0.355277,0.916398 0.65062,1.215699 0.638249,2.374042 -0.03546,3.320229 -0.344624,0.484 -0.896285,0.88 -1.225913,0.88 -0.329629,0 -0.68832,0.144 -0.797095,0.32 -0.245075,0.396541 -0.8,0.421204 -0.8,0.03555 z M 44.173705,24.96 c 0.620707,0 1.505862,-1.354623 1.423907,-2.179115 -0.156256,-1.571914 -0.510032,-2.17281 -1.499018,-2.546111 -0.774556,-0.292362 -1.205961,-0.274938 -2.063446,0.08334 -1.368301,0.571713 -1.486201,0.911919 -0.99416,2.868695 0.315383,1.254227 0.566685,1.633077 1.199011,1.807547 0.44,0.121404 0.991776,0.163339 1.226173,0.09319 C 43.700566,25.017396 44.018956,24.96 44.173705,24.96 Z m -2.366691,-1.595072 c 0.14152,-0.707603 0.05653,-1.006678 -0.328,-1.154237 -0.831415,-0.319044 -0.597949,-0.802696 0.280985,-0.582097 0.485325,0.121809 0.815735,0.06127 0.84,-0.153904 0.02198,-0.195079 0.058,-0.52269 0.08,-0.728024 0.02198,-0.205333 0.229821,-0.436606 0.461821,-0.51394 0.232003,-0.07733 0.394941,0.05467 0.362086,0.293333 -0.145782,1.059008 0.02874,1.306133 0.816093,1.15562 0.866307,-0.165605 1.10248,0.213776 0.32,0.514041 -0.580685,0.22283 -0.639206,1.374087 -0.08,1.573803 0.22,0.07857 0.2896,0.260972 0.154666,0.405334 -0.134931,0.144362 -0.415731,0.09208 -0.624,-0.116191 C 43.630457,23.598457 42.239999,23.554379 42.239999,24 c 0,0.176 -0.1404,0.32 -0.312,0.32 -0.175641,0 -0.228518,-0.417409 -0.120985,-0.955072 z M 43.519999,22.56 c 0,-0.264 -0.216,-0.48 -0.48,-0.48 -0.264,0 -0.48,0.216 -0.48,0.48 0,0.264 0.216,0.48 0.48,0.48 0.264,0 0.48,-0.216 0.48,-0.48 z m 0.96,-8.527713 C 41.250502,11.201566 36.262591,9.1089848 31.947574,8.7745512 27.132707,8.4013771 21.735248,10.097999 17.590053,13.287654 16.539524,14.096017 15.68,14.82099 15.68,14.898703 c 0,0.07771 6.732,0.135445 14.959999,0.128292 l 14.96,-0.013 z m 0.48,37.487712 c -0.443133,-0.856925 -0.444016,-0.96 -0.0082,-0.96 0.268519,0 0.488218,-0.207501 0.488218,-0.461113 0,-0.77912 -0.571165,-0.865351 -1.064695,-0.16074 -0.314592,0.449143 -0.542544,0.549024 -0.693939,0.304064 -0.216051,-0.34958 0.320807,-0.921878 1.518634,-1.618873 0.308,-0.179219 0.565177,-0.212787 0.571507,-0.0746 0.0063,0.138192 0.379123,0.683257 0.828426,1.211257 0.512297,0.602026 0.69119,0.70721 0.47975,0.282074 -0.18544,-0.372858 -0.258566,-0.756525 -0.162499,-0.852592 0.09607,-0.09607 0.01213,-0.4784 -0.18656,-0.849629 -0.477101,-0.891475 0.323174,-1.730512 1.710678,-1.793539 2.356403,-0.10704 2.284307,-0.07292 1.645527,-0.778768 -0.3148,-0.34785 -0.697117,-0.555351 -0.849597,-0.461114 -0.527936,0.326282 -0.273703,-0.38688 0.522768,-1.466432 0.44,-0.596387 0.8,-0.903312 0.8,-0.682054 0,0.221254 0.252,0.360825 0.56,0.310157 0.308,-0.05067 0.764601,0.03598 1.014672,0.19256 0.271638,0.17008 0.207225,-0.05452 -0.16,-0.557933 -0.338071,-0.46344 -0.718154,-0.847142 -0.844631,-0.852675 -0.126473,-0.0055 -0.14615,-0.228442 -0.04372,-0.495363 0.135251,-0.352458 0.478508,-0.07421 1.253948,1.01646 0.587245,0.825971 1.006023,1.601594 0.930618,1.7236 -0.07541,0.12201 -0.752202,0.102874 -1.50399,-0.04252 -1.83394,-0.354681 -1.846887,-0.353756 -1.846887,0.131994 0,0.53385 1.341251,1.815779 1.899808,1.815779 0.329427,0 0.336525,0.09884 0.03332,0.464179 -0.221357,0.26672 -1.088819,0.504944 -2.039184,0.56 l -1.653946,0.09582 1.048557,0.673719 c 0.911965,0.585955 0.984912,0.726534 0.56,1.07918 -0.355507,0.295044 -0.488557,0.303469 -0.488557,0.03094 0,-0.3968 -1.583273,-1.916585 -2.014499,-1.933721 -0.292512,-0.01162 0.04126,2.123312 0.458426,2.932224 0.214384,0.415715 0.02941,0.733245 -0.792327,1.36 -0.589606,0.449715 -1.16272,0.817664 -1.273587,0.817664 -0.110867,0 -0.424973,-0.432 -0.698013,-0.96 z m 1.28,-0.266665 c 0,-0.578772 -0.626336,-0.473111 -0.75056,0.126617 -0.06912,0.333667 0.05084,0.479955 0.32,0.390234 0.236807,-0.07894 0.43056,-0.31152 0.43056,-0.516851 z m -31.806629,0.61406 c -0.297822,-0.188579 -0.359027,-0.480144 -0.183699,-0.8751 0.240779,-0.542394 0.273543,-0.531636 0.388886,0.127705 0.126298,0.721959 0.428549,0.906227 0.829232,0.505546 0.117951,-0.117952 -4.16e-4,-0.542407 -0.263058,-0.943235 -0.815793,-1.24506 0.169208,-2.399885 1.45845,-1.709904 0.634681,0.33967 0.867994,1.587593 0.296819,1.587593 -0.176,0 -0.32,-0.207501 -0.32,-0.461113 0,-0.522116 -0.583257,-0.982298 -0.875106,-0.690448 -0.105889,0.105888 -0.0052,0.542595 0.223811,0.970457 0.731565,1.366941 -0.255473,2.311568 -1.555335,1.488499 z m -1.865834,-1.667859 c -0.267285,-0.267283 -0.118391,-0.564153 0.576,-1.148445 C 13.658591,48.617698 14.08,48.059906 14.08,47.811554 c 0,-0.589494 0.45843,-0.57591 0.96,0.02845 0.2191,0.264 0.255294,0.48 0.08043,0.48 -0.174864,0 -0.660496,0.503018 -1.079183,1.117815 -0.838361,1.231043 -0.947816,1.287619 -1.473712,0.761721 z m -2.124381,-2.222761 c -0.4637356,-0.364775 -0.8431552,-0.868775 -0.8431552,-1.12 0,-0.696157 0.5424542,-0.544352 0.7388792,0.206777 0.131717,0.50369 0.38349,0.638605 1.045046,0.56 1.150147,-0.136656 1.693569,-0.983616 1.094354,-1.705625 -0.406333,-0.4896 -0.476864,-0.491604 -0.819316,-0.02326 -0.330206,0.451584 -0.421584,0.455964 -0.769398,0.03687 -0.327306,-0.394381 -0.246131,-0.543261 0.475463,-0.872041 0.778953,-0.354916 0.933293,-0.318496 1.472563,0.347472 0.805887,0.995228 0.760916,2.125731 -0.108793,2.734899 -0.933713,0.653997 -1.27576,0.629293 -2.285643,-0.165082 z M 8.3162264,45.43295 C 7.8983004,44.652047 7.91739,44.47127 8.3999999,44.639618 9.0276152,44.85855 10.777657,43.289657 10.365537,42.877538 9.9393336,42.451334 8.3877736,42.984991 7.8282015,43.750252 7.4796696,44.226895 7.4108373,44.212914 7.0821231,43.598706 6.609653,42.715887 6.6250844,42.559999 7.1849429,42.559999 c 1.5011152,0 2.71836,-1.380902 1.5966662,-1.811337 -0.2741145,-0.105187 -0.4226342,-0.388669 -0.3300428,-0.629955 0.2035897,-0.530548 -0.046613,-0.546583 -1.3638151,-0.0874 -0.5542633,0.193216 -1.0077513,0.489715 -1.0077513,0.658883 0,0.508787 -0.5507091,0.0058 -0.7255085,-0.662611 -0.1134518,-0.433843 -0.00397,-0.616045 0.3613741,-0.601427 0.7544442,0.03018 2.2841344,-0.636416 2.2841344,-0.995373 0,-0.167786 -0.2091427,-0.514205 -0.4647619,-0.769824 -0.2556189,-0.255619 -0.3756189,-0.553907 -0.2666666,-0.662858 0.4171187,-0.41712 0.695143,-0.156873 1.0703427,1.001904 0.3679174,1.136285 1.7667619,3.866055 2.7876759,5.44 0.41183,0.634919 0.409945,0.72 -0.01595,0.72 -0.265629,0 -0.931888,0.41936 -1.4805766,0.931914 -0.9318109,0.870441 -1.0184736,0.892934 -1.3138416,0.341037 z M 53.927804,42.892626 c -0.144995,-0.234608 -0.06478,-0.523427 0.191197,-0.688403 0.370029,-0.238483 0.36375,-0.33712 -0.039,-0.612905 -0.264,-0.180778 -0.876,-0.414778 -1.36,-0.52 -0.913209,-0.198538 -1.008825,-0.363258 -0.691257,-1.190832 0.16376,-0.426746 0.273395,-0.412995 0.828195,0.103878 0.978755,0.91185 1.903328,1.050784 2.095757,0.314928 0.17863,-0.683078 0.735807,-0.854483 0.712844,-0.219293 -0.008,0.22 -0.34599,1.033783 -0.751196,1.808407 -0.50065,0.957078 -0.816788,1.278883 -0.986538,1.00422 z m 1.752195,-3.780051 c 0,-0.378256 -2.256192,-1.060339 -2.667181,-0.806336 -0.200844,0.124132 -0.232131,-0.0312 -0.08333,-0.413747 0.13104,-0.33687 0.39345,-1.404493 0.583136,-2.372493 0.39969,-2.039676 0.501322,-2.224649 0.882999,-1.607084 0.164774,0.266611 0.818348,0.461139 1.581583,0.470732 0.965997,0.01216 1.301024,0.146749 1.30178,0.523018 0.0016,0.801747 -0.261453,0.877696 -1.529776,0.441667 -1.413533,-0.485949 -1.778669,-0.330643 -1.586471,0.674787 0.09619,0.5032 -0.0249,0.789421 -0.369865,0.874317 -0.335776,0.08263 -0.09365,0.312106 0.701213,0.664567 0.667747,0.296096 1.351747,0.453276 1.519999,0.349292 0.168253,-0.103987 0.305914,0.09893 0.305914,0.450935 0,0.352 -0.144,0.728995 -0.32,0.837769 -0.176,0.108775 -0.32,0.06943 -0.32,-0.08742 z M 4.4799999,37.148883 c 0,-0.163098 -0.073211,-0.488317 -0.1626902,-0.722711 -0.1109216,-0.290563 0.1324765,-0.436451 0.7649104,-0.45847 1.4121312,-0.04917 1.9577798,-0.35928 1.9577798,-1.112669 0,-0.589546 -0.1449914,-0.664666 -1.04,-0.538806 -0.572,0.08044 -1.292,0.255596 -1.6,0.389248 -0.4064825,0.17638 -0.56,0.09685 -0.56,-0.290125 0,-0.293216 0.1234986,-0.456794 0.274441,-0.363507 0.1509424,0.09329 0.7541037,0.03205 1.3403581,-0.136087 0.8514342,-0.244189 1.1855999,-0.197392 1.6607055,0.232573 0.9086694,0.822336 0.6189818,2.096544 -0.5555046,2.443421 -0.528,0.155942 -1.212,0.411814 -1.52,0.568601 -0.3355465,0.170813 -0.56,0.166215 -0.56,-0.01146 z M 54.791202,33.101855 c -0.844579,-0.591568 -0.954736,-2.092608 -0.208345,-2.838998 0.713577,-0.713577 2.278044,-0.645948 2.685884,0.116105 0.548042,1.02403 0.385834,2.186522 -0.379945,2.722893 -0.391159,0.273978 -0.86312,0.498144 -1.048797,0.498144 -0.185677,0 -0.657638,-0.224166 -1.048797,-0.498144 z m 2.015555,-0.907228 c 0.517501,-0.378405 0.544864,-0.522751 0.181981,-0.959999 -0.234909,-0.283046 -0.841472,-0.514629 -1.34792,-0.514629 -0.760406,0 -0.920819,0.13472 -0.920819,0.773334 0,1.120807 1.036614,1.469182 2.086758,0.701294 z M 3.6034201,32.516092 c -0.1700365,-0.275126 1.1119021,-1.454607 1.5965798,-1.468977 0.6572275,-0.01949 0.1189943,-0.622842 -0.72,-0.807115 -0.6066896,-0.133252 -0.96,-0.410704 -0.96,-0.753882 0,-0.440971 0.2417012,-0.519981 1.2860208,-0.420389 0.7073114,0.06745 1.4813114,-0.03944 1.72,-0.237529 0.3453737,-0.286635 0.4339792,-0.19888 0.4339792,0.429814 0,0.711976 -0.098748,0.771227 -1,0.600021 -1.1380192,-0.216184 -1.0660944,-0.0234 0.2450528,0.656833 l 0.9078489,0.470997 -1.0764508,0.570971 c -0.8394397,0.445253 -0.9497664,0.597947 -0.5010784,0.69349 0.316455,0.06739 0.784455,-0.051 1.04,-0.263085 0.3780352,-0.313741 0.4646275,-0.273937 0.4646275,0.213578 0,0.50718 -0.2503591,0.59918 -1.6305574,0.59918 -0.8968064,0 -1.7095165,-0.12776 -1.8060224,-0.283907 z M 55.683538,28.329311 c -0.271193,-0.713298 -0.411254,-0.784885 -0.960515,-0.49093 -0.558675,0.298993 -0.643024,0.246147 -0.643024,-0.402866 0,-0.665848 0.122157,-0.732742 1.124406,-0.615735 0.618426,0.0722 1.33672,-0.04494 1.596215,-0.260296 0.588032,-0.488022 0.898669,0.136174 0.743241,1.493484 -0.145404,1.269816 -1.41112,1.457832 -1.860323,0.276343 z M 56.959999,28 c 0,-0.264 -0.216,-0.48 -0.48,-0.48 -0.832787,0 -0.562909,0.63066 0.4,0.934736 0.044,0.01389 0.08,-0.190736 0.08,-0.454736 z M 3.8413692,25.68 c -0.00141,-0.741185 0.4484992,-0.966525 0.7986307,-0.4 0.1087741,0.176 0.6932723,0.32 1.2988854,0.32 0.8766211,0 1.1011146,-0.126632 1.1011146,-0.621115 0,-0.789747 -0.3321747,-0.986802 -1.753519,-1.040236 -0.6297587,-0.02367 -1.1012454,-0.174356 -1.0477482,-0.334847 0.1082442,-0.324733 0.2629927,-0.32876 1.7699386,-0.04606 1.2910313,0.242199 1.7898604,1.048827 1.3553542,2.191665 -0.2896407,0.761812 -0.4500551,0.82376 -1.9186761,0.740951 C 4.0239731,26.410218 3.8425839,26.318577 3.8413692,25.68 Z M 53.969596,25.334802 C 52.865231,24.114494 53.747842,22.08 55.381605,22.08 c 1.419933,0 2.198096,2.845827 0.959431,3.508741 -0.922848,0.493892 -1.777485,0.402376 -2.37144,-0.253939 z M 56.255999,24.576 c 0.61849,-0.618489 0.444822,-1.188542 -0.428893,-1.40783 -1.049251,-0.263345 -2.256076,0.698559 -1.706793,1.360403 0.443949,0.534926 1.622025,0.561087 2.135686,0.04743 z M 7.2685343,22.811391 C 6.9715976,22.514455 6.2339865,22.272 5.6275644,22.272 4.6475452,22.272 4.5616098,22.205436 4.8488111,21.668795 5.026365,21.337033 5.7353804,20.813195 6.4244009,20.504711 7.7369394,19.91707 7.7701119,19.52 6.5066665,19.52 c -0.755617,0 -1.0382835,-0.742 -0.4266666,-1.12 0.176,-0.108774 0.32,-0.05644 0.32,0.116298 0,0.172738 0.54,0.486631 1.2,0.697542 1.8661615,0.596353 1.8816236,0.841633 0.1013334,1.607493 C 5.9857013,21.559378 5.8935743,22.16 7.4959999,22.16 c 0.8680105,0 0.9735606,0.149101 0.5630627,0.795391 -0.1912771,0.301148 -0.379704,0.266825 -0.7905283,-0.144 z M 52.97111,21.36 c 0.11783,-0.396 0.415536,-1.138124 0.661564,-1.649164 0.246029,-0.511041 0.447325,-0.96556 0.447325,-1.010042 0,-0.244495 -1.315389,0.31627 -1.629401,0.694632 -0.303005,0.365098 -0.486231,0.23009 -1.007389,-0.742279 -0.417837,-0.779593 -0.514218,-1.229478 -0.280115,-1.307512 0.196297,-0.06543 0.356905,-0.307562 0.356905,-0.538066 0,-0.557725 -0.87623,-0.875292 -1.074963,-0.389593 -0.111603,0.272752 -0.251872,0.244727 -0.490394,-0.09798 -0.279292,-0.401284 -0.03402,-0.533219 1.495639,-0.804525 1.006345,-0.178488 1.876297,-0.21875 1.933229,-0.08947 0.05693,0.129279 -0.267072,0.720907 -0.72,1.314729 -0.744173,0.975665 -1.096432,2.13927 -0.64762,2.13927 0.35049,0 2.22921,-1.057204 2.429127,-1.366931 0.478009,-0.740579 0.562349,1.046876 0.101443,2.149979 -0.580362,1.389001 -0.408605,1.793381 0.436774,1.028323 0.72745,-0.658332 1.016765,-0.67295 1.016765,-0.05137 0,0.264 -0.260477,0.48 -0.578838,0.48 -0.318362,0 -0.858362,0.21142 -1.2,0.469823 C 53.270121,22.309152 52.718844,22.2078 52.97111,21.36 Z M 8.3846607,18.365764 C 7.8042239,17.968303 7.1782066,17.592735 6.9935106,17.53117 6.7921397,17.464046 6.9396591,16.878282 7.3619919,16.068019 8.1826021,14.493644 8.5029058,14.221176 8.7564255,14.881838 8.9790607,15.462015 10.352179,15.538405 10.161397,14.96 10.088831,14.74 9.7130005,14.400811 9.3262168,14.206247 8.7758597,13.929401 8.7117851,13.77907 9.0314869,13.514758 c 0.3095161,-0.25589 0.6547478,0.04309 1.4246061,1.233753 L 11.472187,16.32 h -0.755262 c -0.415394,0 -1.1097351,-0.134771 -1.5429805,-0.299491 -0.5562912,-0.211501 -0.957991,-0.174984 -1.3672793,0.124295 -0.539048,0.394161 -0.502218,0.470929 0.5268873,1.098221 0.6085459,0.37094 1.2374569,0.718677 1.3975801,0.772749 0.1748436,0.05904 0.1748436,0.292907 0,0.585481 -0.2525651,0.42263 -0.4309385,0.391433 -1.3464719,-0.235491 z M 48.87743,14.96 c -0.07475,-0.22 0.345254,-0.729192 0.933334,-1.131537 0.58808,-0.402345 1.069235,-0.870344 1.069235,-1.04 0,-0.554068 0.609075,-0.324173 0.980666,0.370153 0.199753,0.37324 0.22823,0.595209 0.06328,0.493266 C 51.758998,13.549939 51.13263,13.88671 50.532019,14.400261 49.301746,15.452204 49.071161,15.530209 48.87743,14.96 Z M 11.575661,13.729591 C 11.166275,13.218316 10.626275,12.8 10.375661,12.8 c -0.7218343,0 -0.5407309,-0.432001 0.675143,-1.610472 1.10206,-1.068159 1.135545,-1.077889 1.317322,-0.382773 0.102585,0.392284 0.313723,0.713245 0.469196,0.713245 0.155473,0 0.282678,0.216 0.282678,0.48 0,0.264 -0.18,0.444 -0.4,0.4 -0.22,-0.044 -0.4,0.136 -0.4,0.4 0,0.747724 0.899144,0.564151 1.31417,-0.268306 0.254763,-0.511004 0.448092,-0.626919 0.609642,-0.365526 0.141779,0.229403 -0.196254,0.80556 -0.84362,1.437898 L 12.32,14.659183 Z M 12.16,11.611428 c 0,-0.800288 -0.04071,-0.827859 -0.517864,-0.350707 -0.284825,0.284825 -0.420327,0.675682 -0.301114,0.868571 C 11.733732,12.764711 12.16,12.495169 12.16,11.611428 Z M 47.103999,13.056 c -0.437363,-0.437362 -0.523232,-1.019821 -0.112966,-0.766264 0.149065,0.09213 0.67624,-0.255441 1.171494,-0.772376 l 0.900467,-0.939883 -0.746208,-0.276041 c -0.506704,-0.187442 -0.62207,-0.3527616 -0.359436,-0.5150774 0.232176,-0.1434935 0.884729,0.2108368 1.632585,0.8864814 1.044618,0.943747 1.171869,1.186888 0.787939,1.505521 -0.365168,0.303064 -0.457875,0.274885 -0.457875,-0.139179 0,-0.783271 -0.492134,-0.627299 -1.390896,0.440818 -0.922032,1.095776 -0.910137,1.090967 -1.425104,0.576 z M 14.72,11.825357 c 0,-0.187037 -0.43425,-0.800257 -0.965001,-1.362712 L 12.789998,9.4399998 13.674999,8.7166946 c 1.033378,-0.8445731 1.788012,-0.811056 1.958344,0.08698 C 15.828186,9.8309352 17.28,10.41838 17.28,9.4699582 c 0,-0.2924963 0.224044,-0.3914531 0.64,-0.282678 0.457342,0.1195977 0.64,0.00982 0.64,-0.384649 0,-0.4246377 -0.179257,-0.5070221 -0.776855,-0.3570342 -0.90802,0.2278985 -1.85282,-0.5316842 -1.571901,-1.2637472 0.221301,-0.5767011 1.223634,-1.1603046 1.506681,-0.8772579 0.399019,0.3990195 0.190066,0.735408 -0.456811,0.735408 -0.390694,0 -0.571862,0.1408057 -0.44509,0.3459286 0.117588,0.1902608 0.54161,0.2636528 0.942271,0.1630931 1.505577,-0.3778758 1.888909,1.7643488 0.400261,2.2368275 -0.378789,0.1202231 -0.885423,0.4153029 -1.125854,0.6557349 -0.314674,0.314674 -0.604333,0.347672 -1.033888,0.117781 -0.999758,-0.535054 -1.502356,-0.351157 -0.752468,0.275323 0.666409,0.55674 0.668732,0.584396 0.08,0.952066 C 14.922479,12.038973 14.72,12.051863 14.72,11.825357 Z m 0.32,-2.5642426 c 0,-0.1656131 -0.216,-0.3011145 -0.48,-0.3011145 -0.494851,0 -0.635746,0.3775881 -0.275367,0.737967 C 14.540291,9.9536248 15.04,9.6646274 15.04,9.2611144 Z m 30.331135,2.1415726 c -0.417789,-0.317383 -0.459821,-0.506003 -0.176,-0.789823 0.579111,-0.57911 -0.203635,-1.2501614 -0.84112,-0.7210958 -0.931056,0.7727098 -2.013433,-0.3060138 -1.817904,-1.8117683 0.02858,-0.22 -0.09837,-0.4 -0.282083,-0.4 -0.30656,0 -0.465817,0.4453337 -0.371923,1.04 0.05146,0.325934 -0.209037,0.3016233 -0.935808,-0.087334 -0.600838,-0.3215587 -0.600611,-0.3383526 0.0129,-0.9518605 0.343491,-0.3434896 0.715802,-0.9881894 0.827357,-1.4326662 0.237027,-0.9443942 0.511113,-0.9947827 1.584707,-0.2913363 0.877529,0.5749795 1.048691,1.6435315 0.308742,1.9274765 -0.534544,0.2051235 -0.650813,1.252381 -0.171904,1.5483634 0.169453,0.1047277 0.903059,-0.1851686 1.630234,-0.6442143 0.727174,-0.4590458 1.399017,-0.7577498 1.492979,-0.6637866 0.09396,0.093963 0.0044,0.8317446 -0.198973,1.6395145 -0.203401,0.8077706 -0.285385,1.6052856 -0.182192,1.7722586 0.267664,0.433086 -0.233181,0.35689 -0.879008,-0.133728 z M 43.284617,7.1687148 C 43.573078,6.8802559 43.175881,6.0571346 42.84647,6.2607234 c -0.157559,0.097376 -0.286471,0.3845488 -0.286471,0.6381619 0,0.4712288 0.381251,0.6131968 0.724618,0.2698295 z m -23.74543,0.2712851 c -0.23616,-0.66 -0.589088,-1.308 -0.784285,-1.44 C 18.508539,5.8333986 18.546797,5.6636335 18.88,5.4449001 c 0.583283,-0.3829008 1.056905,-0.4205815 0.838184,-0.066685 -0.08777,0.1420185 0.17769,0.852 0.589916,1.577736 0.627259,1.10431 0.672034,1.349247 0.274528,1.5017843 -0.261235,0.1002451 -0.506267,0.182264 -0.544516,0.182264 -0.03825,0 -0.262765,-0.54 -0.498925,-1.1999995 z m 18.612016,0.061855 c -1.228695,-0.8606093 -0.681786,-3.3418547 0.736598,-3.3418547 0.624253,0 2.072198,0.6934925 2.072198,0.9924794 0,0.4965382 -0.577305,0.5924595 -0.756425,0.1256825 -0.100919,-0.2629891 -0.479571,-0.4781619 -0.841453,-0.4781619 -0.832499,0 -1.474384,1.4627616 -0.929818,2.1189238 0.52368,0.6309955 0.927696,0.5443632 0.927696,-0.1989238 0,-0.691584 0.236362,-0.7846182 0.909495,-0.3579859 0.358221,0.22704 0.358723,0.3855388 0.0029,0.9550998 -0.505683,0.8097289 -1.149031,0.8657565 -2.121315,0.1847408 z M 22.222678,7.3880264 C 22.470755,6.986629 21.842575,4.7999999 21.479183,4.7999999 c -0.127151,0 -0.403983,0.1728 -0.615183,0.384 -0.298667,0.2986666 -0.383301,0.280889 -0.380854,-0.08 0.0019,-0.2714557 0.665787,-0.6835677 1.6,-0.9931219 C 23.415777,3.6693071 23.68,3.65607 23.68,4.030878 c 0,0.247017 -0.216,0.4491219 -0.48,0.4491219 -0.608988,0 -0.60654,0.5497965 0.0077,1.7276099 0.548551,1.051864 0.568361,0.9940416 -0.447768,1.30692 -0.52838,0.1626947 -0.69215,0.1241325 -0.537249,-0.1265034 z m 2.180587,-0.7434508 c 0.101888,-0.2655139 0.283654,-1.1389565 0.403925,-1.9409834 0.253191,-1.6883994 0.687157,-1.7037318 1.574716,-0.055636 0.329381,0.611624 0.720199,1.1120435 0.868484,1.1120435 0.148285,0 0.26961,0.144 0.26961,0.32 0,0.176 -0.288,0.32 -0.64,0.32 -0.352,0 -0.64,-0.144 -0.64,-0.32 0,-0.176 -0.294313,-0.32 -0.654028,-0.32 -0.431927,0 -0.622097,0.1788966 -0.56,0.5268019 0.05172,0.2897411 -0.108919,0.5973901 -0.356964,0.683664 -0.299604,0.1042069 -0.388808,-0.00519 -0.265743,-0.32589 z M 28.69513,5.3222569 C 28.928453,3.8844579 28.616665,2.9353346 28.085509,3.4664905 27.57264,3.9793596 27.183257,3.935975 27.393022,3.3893343 27.627822,2.777457 30.72048,2.544661 30.720199,3.1388854 30.720089,3.3692723 30.575999,3.468774 30.4,3.3599999 29.773716,2.9729355 29.526803,3.5247452 29.758739,4.7931087 c 0.129429,0.7077901 0.122438,1.2868912 -0.01553,1.2868912 -0.137973,0 -0.47165,0.084725 -0.741503,0.1882771 -0.402963,0.1546317 -0.457748,-0.014422 -0.306571,-0.9460201 z m 2.984869,0.757743 c -0.44,-0.1409126 -0.6055,-0.2705587 -0.367777,-0.2881024 C 31.62494,5.7688191 31.712778,5.3618591 31.629916,4.3199999 31.527284,3.0295728 31.585951,2.88 32.194726,2.88 c 0.623155,0 0.659101,0.1106644 0.434646,1.3381091 -0.134579,0.7359599 -0.171837,1.5279599 -0.08279,1.7599999 0.08904,0.23204 0.110486,0.407537 0.04766,0.3899933 -0.06283,-0.017544 -0.474237,-0.1471898 -0.914237,-0.2881024 z m 1.758176,-0.00294 c -0.122243,-0.1977958 -0.116128,-0.4580483 0.0136,-0.5783389 0.129709,-0.1202976 0.300128,-0.038717 0.378701,0.1812829 0.16712,0.467937 1.049523,0.544664 1.049523,0.091259 0,-0.1698077 -0.288,-0.4628742 -0.64,-0.6512589 -0.894915,-0.4789449 -0.84448,-1.7918835 0.07811,-2.0331445 0.807805,-0.2112456 1.826032,0.5274066 1.232602,0.8941663 -0.19289,0.1192118 -0.350708,0.064251 -0.350708,-0.1221363 0,-0.1863869 -0.216,-0.3388855 -0.48,-0.3388855 -0.67839,0 -0.595324,0.4140295 0.180244,0.8983795 0.952128,0.5946138 0.708726,1.792809 -0.390023,1.9199597 -0.467379,0.054086 -0.949798,-0.063494 -1.072045,-0.2612902 z"
     id="path44"
     inkscape:connector-curvature="0" />
</svg>
